<?xml version="1.0" encoding="UTF-8" standalone="no"?>
<!-- Created with Inkscape (http://www.inkscape.org/) -->

<svg
   width="161.84335mm"
   height="26.34981mm"
   viewBox="0 0 161.84335 26.34981"
   version="1.1"
   id="svg1"
   xmlns="http://www.w3.org/2000/svg"
   xmlns:svg="http://www.w3.org/2000/svg">
  <defs
     id="defs1" />
  <g
     id="layer1"
     transform="translate(-21.828505,-76.32344)">
    <path
       id="text1"
       style="font-size:3.175px;white-space:pre;inline-size:14.7291;fill:#ffffff;fill-opacity:1;stroke-width:0.264583"
       d="m 57.735865,76.098186 c -0.0279,0 -0.04549,0.01758 -0.05272,0.05272 v 1.987475 c 0.02067,0.126091 0.08219,0.189115 0.184511,0.189115 h 0.03099 c 0.102319,0 0.16384,-0.06302 0.184511,-0.189115 v -1.987475 c 0,-0.02791 -0.01758,-0.04549 -0.05272,-0.05272 h -0.02014 c -0.02791,0 -0.04549,0.01758 -0.05272,0.05272 v 1.9394 c 0,0.07028 -0.01965,0.105403 -0.05892,0.105403 h -0.03099 c -0.03824,0 -0.05737,-0.03512 -0.05737,-0.105403 v -1.9394 c 0,-0.02791 -0.01758,-0.04549 -0.05272,-0.05272 z m 0.846456,0 c -0.01447,0 -0.0284,0.0015 -0.04183,0.0046 -0.09819,0.04547 -0.147281,0.103857 -0.147281,0.17517 v 0.04653 c 0,0.01447 0.189633,0.599449 0.568937,1.754933 0.05581,0.165364 0.142093,0.248036 0.258882,0.248036 h 0.04653 c 0.07131,0 0.13279,-0.03358 0.184466,-0.100755 0.02067,0 0.07858,-0.140581 0.173665,-0.421701 0.38654,-1.082103 0.579784,-1.628304 0.579784,-1.63864 v -0.01549 c 0,-0.02791 -0.01754,-0.04549 -0.05268,-0.05272 h -0.02019 c -0.01344,0 -0.02736,0.0072 -0.04183,0.02169 l -0.665088,1.843293 c -0.03514,0.155029 -0.0894,0.232542 -0.162775,0.232542 h -0.03723 c -0.03101,0 -0.06406,-0.01909 -0.0992,-0.05733 -0.02894,-0.06718 -0.230997,-0.678512 -0.606168,-1.833996 0,-0.04134 0.02635,-0.0677 0.07906,-0.07906 l 0.05272,0.02014 c 0.02377,0.05478 0.190706,0.603041 0.500765,1.644837 0.02377,0.10542 0.05528,0.158171 0.09456,0.158171 h 0.01085 c 0.03101,0 0.05014,-0.01965 0.05737,-0.05892 v -0.0093 c 0,-0.0155 -0.174158,-0.593776 -0.522456,-1.73479 -0.03927,-0.09819 -0.09508,-0.147281 -0.167423,-0.147281 z m -9.537408,0.0062 c -0.248047,0 -0.473363,0.07493 -0.675935,0.224795 -0.272851,0.226343 -0.409261,0.515199 -0.409261,0.866599 v 0.106997 c 0,0.272851 0.09922,0.518802 0.297661,0.73791 0.212906,0.191202 0.450088,0.286815 0.71157,0.286815 h 0.113194 c 0.07235,0 0.156051,-0.0088 0.251135,-0.02634 0.180868,-0.02377 0.271321,-0.08839 0.271321,-0.193807 0,-0.101286 -0.05842,-0.159151 -0.175214,-0.173621 h -0.01549 c -0.135392,0.02687 -0.244417,0.04033 -0.327099,0.04033 h -0.04653 c -0.11989,0 -0.228915,-0.02223 -0.3271,-0.06667 C 48.480622,77.79784 48.36433,77.580777 48.36433,77.256249 v -0.02014 c -0.0083,-0.05064 -0.02895,-0.07596 -0.06202,-0.07596 -0.04444,0.0062 -0.06662,0.02482 -0.06662,0.05582 v 0.04648 c 0,0.135392 0.02218,0.259937 0.06662,0.373625 0.129191,0.311092 0.376734,0.466634 0.742603,0.466634 h 0.03723 c 0.09095,0 0.206682,-0.01393 0.347242,-0.04183 0.02687,0 0.04239,0.01548 0.04653,0.04648 0,0.0062 -0.0036,0.0145 -0.01085,0.02483 -0.137459,0.04857 -0.284231,0.07286 -0.440293,0.07286 -0.276986,0 -0.509008,-0.09045 -0.696077,-0.271321 -0.164331,-0.197403 -0.246486,-0.416014 -0.246486,-0.655792 0,-0.202571 0.03409,-0.376684 0.102304,-0.522412 0.186035,-0.352432 0.486801,-0.528653 0.902279,-0.528653 0.148828,0 0.305917,0.031 0.471281,0.09301 h 0.01085 c 0.02274,0 0.04135,-0.01397 0.05582,-0.04188 v -0.02944 c 0,-0.01344 -0.0088,-0.02896 -0.02638,-0.04653 -0.163297,-0.06511 -0.315227,-0.09766 -0.455787,-0.09766 z m 0.942607,0 c -0.02791,0 -0.04549,0.01758 -0.05272,0.05272 v 2.117668 c 0,0.0279 0.01758,0.04549 0.05272,0.05272 h 1.071251 c 0.112655,-0.0155 0.168973,-0.06976 0.168973,-0.162775 v -0.02634 c 0,-0.0248 -0.0036,-0.04394 -0.01085,-0.05737 -0.02894,-0.07441 -0.09562,-0.111645 -0.200004,-0.111645 h -0.734856 c -0.04961,0.0062 -0.07442,0.02585 -0.07442,0.05892 v 0.03103 c 0.0155,0.02791 0.03515,0.04183 0.05892,0.04183 h 0.772041 c 0.04237,0 0.06357,0.01758 0.06357,0.05272 0,0.02687 -0.01444,0.0408 -0.04338,0.04183 h -0.998429 v -2.038605 c 0,-0.0279 -0.01754,-0.04549 -0.05268,-0.05272 z m 4.142373,0 c -0.06511,0 -0.117304,0.01243 -0.156578,0.03723 -0.104386,0.03101 -0.156577,0.13642 -0.156577,0.316254 v 1.578169 c 0.0052,0.04857 0.02425,0.07287 0.05733,0.07287 h 0.02174 c 0.01964,0 0.03666,-0.01393 0.05113,-0.04183 v -1.640234 c 0,-0.01757 0.0015,-0.04702 0.0046,-0.08836 0.02481,-0.07235 0.09458,-0.108502 0.209302,-0.108502 0.08785,0 0.198982,0.02068 0.333341,0.06202 0.187068,0.07958 0.280573,0.204598 0.280573,0.37513 v 0.04188 c 0,0.125057 -0.07132,0.23563 -0.213949,0.331748 -0.08992,0.03721 -0.134842,0.07031 -0.134842,0.09925 0,0.0186 0.0088,0.03769 0.02634,0.05733 0.270784,0.09405 0.406162,0.24495 0.406162,0.452689 0,0.06408 -0.01754,0.142623 -0.05268,0.235641 -0.09405,0.210839 -0.378825,0.316298 -0.854248,0.316298 -0.07958,0 -0.147248,-0.0083 -0.203059,-0.02483 -0.07545,-0.03204 -0.113194,-0.093 -0.113194,-0.182917 0.03101,-0.162264 0.04653,-0.398413 0.04653,-0.708472 v -1.077493 c 0,-0.03204 -0.01913,-0.05113 -0.05737,-0.05733 h -0.01549 c -0.03307,0 -0.0522,0.02429 -0.05737,0.07287 v 1.103789 c 0,0.247013 -0.01393,0.46042 -0.04183,0.640254 v 0.05737 c 0,0.02687 0.0052,0.05632 0.01549,0.08836 0.05581,0.142626 0.172057,0.213949 0.34879,0.213949 h 0.198456 c 0.259415,0 0.470759,-0.05013 0.634056,-0.15038 0.183968,-0.130224 0.27597,-0.295052 0.27597,-0.494522 v -0.06357 c 0,-0.191202 -0.111089,-0.350871 -0.333297,-0.479028 0.170532,-0.126091 0.255783,-0.273378 0.255783,-0.441843 v -0.03103 c 0,-0.167431 -0.07648,-0.310032 -0.229444,-0.427854 -0.153995,-0.08992 -0.313664,-0.134886 -0.479028,-0.134886 z m 2.002968,0 c -0.0279,0 -0.04549,0.01758 -0.05272,0.05272 v 2.117668 c 0,0.0279 0.01758,0.04549 0.05272,0.05272 h 1.071252 c 0.112654,-0.0155 0.168972,-0.06976 0.168972,-0.162775 v -0.02634 c 0,-0.0248 -0.0036,-0.04394 -0.01085,-0.05737 -0.02894,-0.07441 -0.09562,-0.111645 -0.200004,-0.111645 h -0.734812 c -0.04961,0.0062 -0.07441,0.02585 -0.07441,0.05892 v 0.03103 c 0.0155,0.02791 0.03515,0.04183 0.05892,0.04183 h 0.772042 c 0.04237,0 0.06357,0.01758 0.06357,0.05272 0,0.02687 -0.01449,0.0408 -0.04343,0.04183 h -0.998386 v -2.038605 c 0,-0.0279 -0.01758,-0.04549 -0.05272,-0.05272 z m 4.435386,0 c -0.02791,0 -0.04549,0.01758 -0.05272,0.05272 v 2.117668 c 0,0.0279 0.01758,0.04549 0.05272,0.05272 h 1.088294 c 0.111621,-0.0155 0.167423,-0.06976 0.167423,-0.162775 v -0.02634 c 0,-0.0248 -0.0036,-0.04394 -0.01084,-0.05737 -0.02894,-0.07441 -0.09506,-0.111645 -0.198411,-0.111645 H 60.92018 V 77.27639 c 0,-0.06408 0.07906,-0.102813 0.237191,-0.116249 h 0.05737 c 0.10232,0 0.251111,0.02481 0.446447,0.07442 0.04237,0 0.06512,-0.02274 0.06822,-0.06822 0,-0.0155 -0.0088,-0.03309 -0.02634,-0.05272 -0.193269,-0.05581 -0.358141,-0.08371 -0.494566,-0.08371 h -0.03564 c -0.04754,0 -0.08632,0.0031 -0.116294,0.0093 -0.1788,0.04031 -0.268178,0.119368 -0.268178,0.237191 v 0.767393 c 0,0.03307 0.01965,0.0522 0.05892,0.05737 h 0.787535 c 0.03824,0.0052 0.05737,0.01398 0.05737,0.02638 v 0.04803 c -0.0052,0.01344 -0.01708,0.02014 -0.03568,0.02014 H 60.64731 V 76.23617 h 1.040263 c 0.06305,-0.0052 0.09456,-0.02636 0.09456,-0.06357 -0.0072,-0.04547 -0.02637,-0.06822 -0.05737,-0.06822 z m -8.84753,0.0062 c -0.103353,0 -0.164314,0.06462 -0.182917,0.193807 v 1.201445 c 0,0.111621 0.0212,0.22688 0.06357,0.345736 0.131258,0.335897 0.368956,0.503863 0.71312,0.503863 h 0.07287 c 0.218074,0 0.403065,-0.07545 0.554993,-0.226344 0.171566,-0.194303 0.257377,-0.426886 0.257377,-0.69767 V 76.16331 c 0,-0.02791 -0.01758,-0.04549 -0.05272,-0.05272 h -0.02014 c -0.02791,0 -0.04549,0.01758 -0.05272,0.05272 v 1.164259 c 0,0.22841 -0.03826,0.417055 -0.114743,0.565883 -0.135393,0.220141 -0.320899,0.330198 -0.556543,0.330198 h -0.105403 c -0.201538,0 -0.365894,-0.08216 -0.493017,-0.246486 -0.09405,-0.160197 -0.141084,-0.322489 -0.141084,-0.48682 0.0041,-0.06511 0.0062,-0.119367 0.0062,-0.162775 v -1.016978 c 0.0041,-0.04548 0.02116,-0.06822 0.05113,-0.06822 h 0.03723 c 0.03514,0 0.05268,0.03306 0.05268,0.09921 v 1.100734 c 0,0.112654 0.01758,0.224774 0.05272,0.336395 0.10542,0.240812 0.26612,0.361231 0.482127,0.361231 0.05271,0 0.07906,-0.02119 0.07906,-0.06357 v -0.0093 c 0,-0.01447 -0.01083,-0.03205 -0.03254,-0.05272 -0.09715,-0.0083 -0.15966,-0.02065 -0.187565,-0.03718 -0.1757,-0.08475 -0.263574,-0.255811 -0.263574,-0.51316 v -1.122425 c 0,-0.133326 -0.05735,-0.210323 -0.172071,-0.230993 z"
       transform="matrix(11.673432,0,0,11.673432,-538.02599,-812.00356)" />
  </g>
</svg>
